<?xml version="1.0" encoding="UTF-8"?>
<svg version="1.1" xmlns="http://www.w3.org/2000/svg" width="200" height="200">
<path d="M0 0 C7.42400257 4.71733496 8.05437409 12.92200003 9.94921875 20.9765625 C12.65374645 33.19464658 12.65374645 33.19464658 11 38 C8.27734375 39.8984375 8.27734375 39.8984375 4.9375 41.375 C3.83277344 41.87773438 2.72804687 42.38046875 1.58984375 42.8984375 C0.73519531 43.26195312 -0.11945313 43.62546875 -1 44 C-0.53282887 49.95478692 0.66333386 54.23883015 3.5625 59.4375 C3.913125 60.08420654 4.26375 60.73091309 4.625 61.3972168 C7.36637563 66.27815806 10.58234757 70.3764086 14.53125 74.36328125 C16 76 16 76 16 78 C16.58136719 78.26039062 17.16273437 78.52078125 17.76171875 78.7890625 C20.14350256 80.07763664 21.83579532 81.5311492 23.8125 83.375 C27.37673872 86.54763707 30.65757351 88.99580316 35 91 C37.04870951 90.98449285 37.04870951 90.98449285 39 90 C40.90275876 87.78649988 42.4773577 85.44155437 44.12109375 83.03125 C46 81 46 81 48.25390625 80.0625 C52.01053392 79.97700065 55.06607343 81.1295684 58.5 82.5 C59.19689941 82.77118652 59.89379883 83.04237305 60.61181641 83.32177734 C78.00197794 90.27388515 78.00197794 90.27388515 81.3828125 94.88671875 C82.89127287 100.05176344 81.07356328 105.8119758 78.76953125 110.5078125 C73.91124428 118.19250234 68.52445084 123.28121869 59.59375 125.52734375 C45.74100965 128.0517136 33.34953698 122.69434104 22 115 C-2.33786511 97.43255125 -27.94826483 68.07598972 -33.40625 37.7421875 C-34.9127263 26.82023436 -32.63470292 17.82495424 -26 9 C-20.00038391 2.58180605 -8.92933453 -2.29130094 0 0 Z " fill="#000000" transform="translate(76,37)"/>
</svg>
