<?xml version="1.0" encoding="UTF-8"?>
<svg version="1.1" xmlns="http://www.w3.org/2000/svg" width="512" height="512">
<path d="M0 0 C0.9910567 -0.00525911 0.9910567 -0.00525911 2.00213474 -0.01062447 C4.21373073 -0.01992054 6.42506235 -0.01501987 8.63666916 -0.01015663 C10.23927008 -0.0138938 11.84186919 -0.01849559 13.4444654 -0.02388728 C17.84683629 -0.0361245 22.24913123 -0.03585595 26.65151525 -0.03349853 C31.4001236 -0.03309054 36.14870754 -0.04412779 40.89730453 -0.05361366 C50.20037211 -0.07022877 59.50341435 -0.07572345 68.80649552 -0.07683842 C76.36872331 -0.07778868 83.93094273 -0.0818979 91.49316788 -0.08823967 C112.93336515 -0.10585374 134.3735424 -0.11507832 155.81374696 -0.11357872 C157.5476294 -0.11345885 157.5476294 -0.11345885 159.31653976 -0.11333656 C160.4738728 -0.1132548 161.63120583 -0.11317304 162.82360956 -0.1130888 C181.57913348 -0.11227593 200.33457709 -0.13141346 219.09007779 -0.1596133 C238.34799309 -0.18834005 257.60586921 -0.20215369 276.86380649 -0.20042574 C287.67569415 -0.19976175 298.48749763 -0.20525796 309.299366 -0.22678185 C318.5051491 -0.2449909 327.71080986 -0.24934324 336.91660318 -0.235763 C341.6125373 -0.22923189 346.30823668 -0.22912133 351.00414848 -0.2464695 C355.30619254 -0.26219896 359.60781571 -0.25933793 363.90984949 -0.24190123 C365.46300252 -0.23883105 367.01618696 -0.24246445 368.56930295 -0.25362138 C380.85593438 -0.3360111 390.08377878 1.33230246 399.23402023 9.96430016 C403.87574314 15.33844482 407.33160976 22.31804688 407.34871006 29.48720455 C407.3531679 30.35437621 407.35762575 31.22154786 407.36221868 32.11499745 C407.36194213 33.54492705 407.36194213 33.54492705 407.36166 35.00374413 C407.36533669 36.01605628 407.36901338 37.02836843 407.37280148 38.07135671 C407.3838567 41.47976806 407.38768531 44.88814894 407.39149094 48.29657555 C407.39775427 50.73396464 407.40440095 53.17135277 407.41140366 55.60873985 C407.43064545 62.93574339 407.44123489 70.26273883 407.45013145 77.58976021 C407.45451577 81.04178609 407.45988229 84.49381044 407.46512032 87.94583511 C407.48213398 99.42463583 407.49662677 110.90343559 407.50386906 122.38224697 C407.5057789 125.36101406 407.50769924 128.33978114 407.509655 131.3185482 C407.51013874 132.05889167 407.51062248 132.79923514 407.51112088 133.56201326 C407.51941599 145.54728806 407.54474346 157.53246289 407.57723568 169.51769406 C407.61033696 181.82819442 407.62832068 194.13864404 407.6315133 206.44918913 C407.6336758 213.35881557 407.64238601 220.26829633 407.66797447 227.17787933 C407.69200219 233.68100806 407.69548785 240.18394602 407.68521309 246.68711281 C407.68471762 249.07112118 407.69104123 251.45514243 407.70476913 253.83911133 C407.72249445 257.10035629 407.71537785 260.36066201 407.70223618 263.62190819 C407.71869004 265.02841522 407.71869004 265.02841522 407.73547632 266.46333653 C407.6435997 275.94369391 404.58007477 283.62179355 398.07386398 290.50336266 C391.54371081 296.66310798 385.55794298 299.50360169 376.39774323 299.51453781 C375.73366201 299.51804389 375.0695808 299.52154996 374.38537592 299.52516228 C372.16229357 299.53445896 369.93947419 299.52955752 367.71638107 299.52469444 C366.10553056 299.52843158 364.49468186 299.53303336 362.88383603 299.53842509 C358.4586621 299.5506627 354.03356373 299.55039372 349.60837674 299.54803634 C344.83522834 299.54762836 340.06210423 299.5586655 335.28896713 299.56815147 C325.93777264 299.58476679 316.58660336 299.59026127 307.23539534 299.59137623 C299.63407527 299.59232648 292.03276352 299.59643565 284.43144608 299.60277748 C262.88057377 299.6203916 241.32972138 299.62961612 219.77884182 299.62811653 C218.61694621 299.62803662 217.45505059 299.62795671 216.25794601 299.62787437 C215.09463175 299.62779261 213.93131749 299.62771085 212.73275128 299.62762661 C193.88022964 299.62681374 175.02778789 299.64595132 156.17528936 299.67415111 C136.817933 299.70287758 117.46061561 299.71669152 98.10323739 299.71496356 C87.23545855 299.71429956 76.36776346 299.71979617 65.50000381 299.74131966 C56.24664376 299.75952835 46.99340542 299.76388135 37.74003521 299.75030081 C33.01979833 299.74376952 28.29979499 299.7436598 23.57958031 299.76100731 C19.25533191 299.77673596 14.93150225 299.77387655 10.60726407 299.75643905 C9.04603574 299.75336869 7.48477616 299.75700293 5.92358467 299.7681592 C-5.2067172 299.84240492 -14.80438791 298.85225653 -23.25426102 290.96039391 C-30.26115686 283.16700976 -32.08621802 275.30810543 -32.05293655 265.06737328 C-32.05746767 264.04362518 -32.06199878 263.01987708 -32.0666672 261.96510631 C-32.07932358 258.53599934 -32.07769001 255.10705094 -32.07603836 251.6779232 C-32.08202282 249.21876382 -32.08882818 246.75960631 -32.09639359 244.30045128 C-32.11223308 238.31445548 -32.11850233 232.32852198 -32.11961834 226.34251102 C-32.12056965 221.4752578 -32.12468409 216.60801755 -32.13101959 211.74076843 C-32.14862719 197.93208208 -32.15785922 184.12342678 -32.15635864 170.31472912 C-32.15627873 169.57075016 -32.15619882 168.8267712 -32.15611649 168.06024742 C-32.15603472 167.31535692 -32.15595296 166.57046641 -32.15586872 165.80300347 C-32.15505596 153.7331732 -32.17419246 141.66346777 -32.20239322 129.59367361 C-32.23114112 117.19154521 -32.24493247 104.78947765 -32.24320567 92.38731509 C-32.24254242 85.42803124 -32.24800585 78.46887827 -32.26956177 71.50962448 C-32.28970777 64.96376347 -32.28908039 58.41813134 -32.2745285 51.87224007 C-32.27243715 49.4716883 -32.27716066 47.07111932 -32.28924942 44.67059708 C-32.30470089 41.38944548 -32.2953934 38.10924676 -32.27998734 34.82811546 C-32.29027446 33.88179573 -32.30056159 32.935476 -32.31116045 31.96047992 C-32.21544565 22.71376252 -28.97277408 15.77708916 -22.71129227 9.04633141 C-16.13513002 2.93703666 -9.00288502 0.01080393 0 0 Z M4.21448898 19.25726891 C6.1473912 23.12307334 7.48914903 24.66653029 10.65198898 27.44476891 C11.55433273 28.23754234 12.45667648 29.03031578 13.38636398 29.84711266 C16.93325091 32.86980497 20.54093751 35.8106332 24.16370773 38.74164391 C27.73505397 41.6865184 31.22663386 44.71443866 34.71448898 47.75726891 C38.9965519 51.49142058 43.29780733 55.18185995 47.71448898 58.75726891 C54.04322643 63.88589021 60.16154733 69.25001562 66.30482101 74.59760094 C73.34721289 80.71805351 80.404517 86.81757227 87.65198898 92.69476891 C93.99725779 97.84913682 100.13958346 103.23089656 106.30482101 108.59760094 C113.34721289 114.71805351 120.404517 120.81757227 127.65198898 126.69476891 C133.99725779 131.84913682 140.13958346 137.23089656 146.30482101 142.59760094 C154.24353282 149.49703368 162.21850145 156.34164022 170.40980148 162.94086266 C172.52876427 164.69092524 174.59283682 166.46603806 176.64417648 168.29242516 C177.2273967 168.80539146 177.81061691 169.31835777 178.41151047 169.84686852 C179.55047085 170.8516268 180.68064328 171.86645768 181.80067062 172.89227867 C183.51799184 174.44790631 183.51799184 174.44790631 186.21448898 176.25726891 C189.34603209 175.91542103 191.11640069 174.77154227 193.42933273 172.70258141 C194.02624924 172.17591881 194.62316574 171.64925621 195.23817062 171.10663414 C195.86973068 170.53759361 196.50129074 169.96855309 197.15198898 169.38226891 C198.5029413 168.18756815 199.85451424 166.99356885 201.20667648 165.80023766 C202.21939621 164.90184166 202.21939621 164.90184166 203.25257492 163.98529625 C206.05919911 161.51325966 208.91348876 159.10044593 211.77698898 156.69476891 C216.32104962 152.86716146 220.83657638 149.00817817 225.33948898 145.13226891 C229.40069774 141.63903034 233.48967869 138.19278184 237.65198898 134.81976891 C243.99725779 129.66540099 250.13958346 124.28364125 256.30482101 118.91693687 C263.34721289 112.79648431 270.404517 106.69696554 277.65198898 100.81976891 C283.99725779 95.66540099 290.13958346 90.28364125 296.30482101 84.91693687 C303.34721289 78.79648431 310.404517 72.69696554 317.65198898 66.81976891 C323.99725779 61.66540099 330.13958346 56.28364125 336.30482101 50.91693687 C343.49244807 44.67026228 350.70390526 38.45700028 358.08948898 32.44476891 C361.38232822 29.76171471 364.66735444 27.07289043 367.90198898 24.31976891 C368.86685226 23.50185875 368.86685226 23.50185875 369.85120773 22.66742516 C371.44617445 21.3445166 371.44617445 21.3445166 371.21448898 19.25726891 C250.10448898 19.25726891 128.99448898 19.25726891 4.21448898 19.25726891 Z M-12.78551102 33.25726891 C-12.78551102 109.48726891 -12.78551102 185.71726891 -12.78551102 264.25726891 C-9.43655766 262.58279223 -8.11570908 261.82125207 -5.75426102 259.23773766 C-5.19738602 258.63445641 -4.64051102 258.03117516 -4.06676102 257.40961266 C-3.47894852 256.76121422 -2.89113602 256.11281578 -2.28551102 255.44476891 C-1.66676102 254.77187828 -1.04801102 254.09898766 -0.41051102 253.40570641 C0.86143096 252.02168758 2.13096184 250.63544906 3.39808273 249.247015 C5.51367575 246.92953072 7.64128062 244.62341082 9.77112961 242.31903648 C10.73933834 241.27139926 11.70677743 240.22305026 12.67347336 239.17401695 C17.09492678 234.37656477 21.54854384 229.60948096 26.00355148 224.84320641 C29.75478441 220.82756939 33.49135355 216.79896138 37.21448898 212.75726891 C42.12108038 207.4308622 47.05843037 202.13383816 52.00355148 196.84320641 C55.75478441 192.82756939 59.49135355 188.79896138 63.21448898 184.75726891 C67.52935792 180.07321332 71.86574906 175.40989239 76.21448898 170.75726891 C81.06762991 165.56462693 85.90283947 160.35618944 90.7193718 155.12958336 C96.53316029 148.82218976 102.37428667 142.54019623 108.21448898 136.25726891 C104.82887554 132.13647295 101.50027392 128.42816584 97.27698898 125.13226891 C92.65510266 121.44733641 88.16492635 117.64739739 83.71448898 113.75726891 C79.43283341 110.02267507 75.13114647 106.3326583 70.71448898 102.75726891 C64.38575154 97.6286476 58.26743064 92.26452219 52.12415695 86.91693687 C45.08176507 80.79648431 38.02446097 74.69696554 30.77698898 68.81976891 C25.09832041 64.2068915 19.58690549 59.41239888 14.06995773 54.60883141 C10.30061971 51.32724515 6.51112964 48.06970153 2.71448898 44.81976891 C2.16365646 44.34821373 1.61282394 43.87665855 1.04529953 43.39081383 C-0.0168889 42.48176842 -1.08025725 41.57409962 -2.14488602 40.66791344 C-3.33100869 39.64805975 -4.50685798 38.6162165 -5.67613602 37.57709312 C-6.30004227 37.02682457 -6.92394852 36.47655602 -7.56676102 35.90961266 C-8.13459305 35.40293053 -8.70242508 34.8962484 -9.28746414 34.37421227 C-10.74130589 33.05802227 -10.74130589 33.05802227 -12.78551102 33.25726891 Z M381.77698898 37.19476891 C378.27291346 40.41351257 374.72989238 43.51944716 371.02698898 46.50726891 C365.88754471 50.6681166 360.89122747 54.97461379 355.90540695 59.31659508 C351.32405552 63.30368111 346.70738455 67.24512396 342.0631218 71.15863609 C338.05064714 74.54208839 334.06738511 77.95827075 330.08948898 81.38226891 C326.02828022 84.87550747 321.93929928 88.32175597 317.77698898 91.69476891 C311.43172018 96.84913682 305.2893945 102.23089656 299.12415695 107.59760094 C288.65456075 116.69659288 278.05442564 125.6007776 267.21448898 134.25726891 C268.83749797 138.21099429 271.56700502 141.0158655 274.46448898 144.06976891 C274.99171555 144.63308922 275.51894211 145.19640953 276.06214523 145.77680016 C277.19240615 146.98382353 278.3246308 148.18901051 279.45862961 149.39252281 C281.79771952 151.87666752 284.12466404 154.37203217 286.45179367 156.86737633 C287.63413059 158.13503146 288.8170809 159.40211474 290.0006218 160.66864586 C294.24326585 165.20925461 298.46317607 169.77019496 302.67322922 174.34100914 C306.52328934 178.51737795 310.39735823 182.67087274 314.27698898 186.81976891 C318.42581993 191.25686169 322.55549831 195.70929396 326.65198898 200.19476891 C331.58704503 205.59430081 336.58603778 210.93156123 341.59486008 216.26264 C345.99674226 220.95046023 350.37063539 225.66269028 354.72596359 230.39374352 C359.12070093 235.16443834 363.54424015 239.90789549 367.9796257 244.64081383 C370.89895278 247.75961065 373.79940129 250.89248393 376.66370773 254.06195641 C377.2096257 254.66330406 377.75554367 255.26465172 378.31800461 255.88422203 C379.34883829 257.02182517 380.37513911 258.16355774 381.39612961 259.31000328 C383.65350215 261.79532929 384.97054118 263.17595297 388.21448898 264.25726891 C388.21448898 188.02726891 388.21448898 111.79726891 388.21448898 33.25726891 C385.13181325 33.25726891 383.99254251 35.12101081 381.77698898 37.19476891 Z M122.21448898 148.25726891 C120.6681791 149.76661994 120.6681791 149.76661994 119.06995773 151.74555016 C115.355047 156.11337877 111.47306921 160.28606618 107.52698898 164.44476891 C102.68706441 169.56578612 97.85976954 174.69626348 93.08948898 179.88226891 C88.81759587 184.5259467 84.52346167 189.14797033 80.21448898 193.75726891 C75.86568725 198.40983415 71.52935748 203.0732138 67.21448898 207.75726891 C62.30789759 213.08367561 57.37054759 218.38069965 52.42542648 223.67133141 C48.67419355 227.68696842 44.93762441 231.71557644 41.21448898 235.75726891 C36.89961916 240.44132546 32.56310513 245.10452881 28.21448898 249.75726891 C16.50559372 262.2738723 16.50559372 262.2738723 4.96448898 274.94476891 C4.15237961 275.84775719 4.15237961 275.84775719 3.32386398 276.76898766 C2.01527548 278.2151473 2.01527548 278.2151473 2.21448898 280.25726891 C124.64448898 280.25726891 247.07448898 280.25726891 373.21448898 280.25726891 C371.63199886 277.09228867 370.69235525 275.47225488 368.37855148 273.04242516 C367.81523117 272.44558922 367.25191086 271.84875328 366.67152023 271.23383141 C366.06694992 270.60219078 365.46237961 269.97055016 364.83948898 269.31976891 C363.56049207 267.96723623 362.28185201 266.61436602 361.00355148 265.26117516 C360.36320969 264.58586754 359.72286789 263.91055992 359.0631218 263.21478844 C356.42213878 260.41824831 353.81686772 257.58968485 351.21448898 254.75726891 C346.90029051 250.0726011 342.5632442 245.40986729 338.21448898 240.75726891 C333.37488102 235.57952239 328.55543059 230.38406648 323.75355148 225.17133141 C319.92397442 221.01755734 316.0723993 216.88472754 312.21448898 212.75726891 C307.37488102 207.57952239 302.55543059 202.38406648 297.75355148 197.17133141 C293.92397442 193.01755734 290.0723993 188.88472754 286.21448898 184.75726891 C282.35571004 180.62888095 278.50265054 176.49568494 274.67322922 172.34003258 C273.70764412 171.29235255 272.74102413 170.24562529 271.77332687 169.19989586 C268.98509099 166.18617857 266.21593178 163.15657559 263.46058273 160.11273766 C262.19120912 158.72327071 260.9216805 157.33394536 259.65198898 155.94476891 C259.05579758 155.27961266 258.45960617 154.61445641 257.84534836 153.92914391 C257.2852507 153.31941734 256.72515305 152.70969078 256.14808273 152.08148766 C255.6536467 151.53581139 255.15921066 150.99013512 254.64979172 150.4279232 C253.13571797 148.94124616 253.13571797 148.94124616 250.21448898 149.25726891 C248.18087452 150.78323071 246.30145799 152.32747024 244.40198898 154.00726891 C243.83302902 154.49952965 243.26406906 154.99179039 242.67786789 155.49896812 C241.46828537 156.54599544 240.2613215 157.59605437 239.05677414 158.64887047 C236.08329202 161.24485512 233.08600184 163.81294316 230.08948898 166.38226891 C229.50054855 166.88862877 228.91160812 167.39498863 228.30482101 167.91669273 C223.97763702 171.62922674 219.57447896 175.23864201 215.14417648 178.82758141 C210.86060201 182.3800925 206.68047736 186.0507693 202.51551437 189.74139977 C191.89197954 199.06566361 191.89197954 199.06566361 185.1646843 198.68890953 C181.76499982 197.93645057 179.52585132 195.84287054 177.08948898 193.50726891 C175.96474138 192.49396784 174.83973211 191.48095718 173.71448898 190.46820641 C172.85403976 189.67494957 172.85403976 189.67494957 171.97620773 188.86566734 C169.0749164 186.21687198 166.07933835 183.68005852 163.08948898 181.13226891 C162.50014572 180.62590904 161.91080246 180.11954918 161.30360031 179.59784508 C157.83511059 176.61996568 154.32895598 173.69817771 150.77698898 170.81976891 C145.59139529 166.61128263 140.54678513 162.25158887 135.51551437 157.86102867 C133.75185967 156.32253144 131.98368006 154.78939341 130.21448898 153.25726891 C129.36684982 152.51380211 129.36684982 152.51380211 128.50208664 151.75531578 C125.75341364 149.09669268 125.75341364 149.09669268 122.21448898 148.25726891 Z " fill="#000000" transform="translate(69.7855110168457,107.74273109436035)"/>
</svg>
