<?xml version="1.0" encoding="UTF-8"?>
<svg version="1.1" xmlns="http://www.w3.org/2000/svg" width="298" height="272">
<path d="M0 0 C0.92392485 -0.00623996 1.84784969 -0.01247993 2.79977226 -0.01890898 C5.88516898 -0.03482041 8.96977367 -0.02224174 12.05517578 -0.00964355 C14.27142802 -0.01506548 16.48767665 -0.02218853 18.70391846 -0.03088379 C24.71626887 -0.04911151 30.72834458 -0.0420517 36.74069977 -0.02936745 C43.03417193 -0.01923704 49.32762066 -0.02863325 55.62109375 -0.03491211 C66.86651527 -0.04265437 78.11182362 -0.03022745 89.3572185 -0.00987476 C99.546313 0.00799547 109.7352252 0.00489111 119.92431641 -0.0135498 C131.76627041 -0.03497225 143.60813617 -0.04291523 155.4501133 -0.03110075 C161.71513877 -0.02486615 167.98003875 -0.02402941 174.24505615 -0.0372467 C180.13518518 -0.0488052 186.02497008 -0.04077901 191.91506195 -0.01766968 C194.07617369 -0.01238265 196.23731442 -0.01389622 198.39841461 -0.02272034 C201.34965897 -0.03365931 204.29980226 -0.01993151 207.25097656 0 C208.10516615 -0.00892289 208.95935574 -0.01784577 209.83942986 -0.02703905 C215.57452112 0.04803322 218.90438231 1.20883879 223.62548828 4.50793457 C229.23935613 10.97330437 228.18188354 19.06154629 228.12719727 27.17028809 C228.13098356 28.76748124 228.13648615 30.3646711 228.14356995 31.96185303 C228.15750037 36.28622402 228.14637238 40.61019607 228.12985873 44.9345448 C228.11598134 49.46543498 228.12247128 53.99630264 228.12599182 58.52720642 C228.12869154 66.13404754 228.11523789 73.74073066 228.09204102 81.34753418 C228.0654232 90.1368801 228.0636881 98.92596205 228.07542938 107.71533448 C228.08621476 116.17878182 228.08001474 124.64213387 228.0658741 133.10557365 C228.06012186 136.70393062 228.06019096 140.30221767 228.0649395 143.90057564 C228.0697178 148.13846715 228.05957239 152.3760702 228.03798485 156.61390686 C228.03242877 158.16750045 228.03194086 159.72112184 228.03693771 161.27471733 C228.04291129 163.39859678 228.03034721 165.52160033 228.01316833 167.645401 C228.00952349 169.42649435 228.00952349 169.42649435 228.00580502 171.24356937 C227.50221489 175.56602467 226.07487187 178.95528702 223.09033203 182.15246582 C219.00548265 185.27617417 217.0225867 186.64017767 211.92352295 186.57867432 C210.93130737 186.56967606 209.9390918 186.5606778 208.91680908 186.55140686 C207.82390564 186.53673874 206.7310022 186.52207062 205.60498047 186.50695801 C203.22402443 186.48418548 200.84306296 186.46197521 198.46209717 186.44024658 C196.55948246 186.42107304 196.55948246 186.42107304 194.61843109 186.40151215 C190.64903633 186.36710738 186.67977862 186.3476791 182.71026611 186.33685303 C181.70415382 186.33410122 181.70415382 186.33410122 180.67771602 186.33129382 C177.90863907 186.32419579 175.1395612 186.31789074 172.37048101 186.31219625 C164.52673192 186.29542577 156.68444229 186.25801391 148.84130859 186.15490723 C142.60894464 186.07310723 136.3782414 186.03811173 130.14534116 186.05642152 C126.85122266 186.06440477 123.56170191 186.04292309 120.26808929 185.97881317 C104.03356548 185.22318223 104.03356548 185.22318223 89.96175003 192.07710648 C87.75787762 194.27477787 85.75301275 196.55737493 83.83763885 199.00934601 C82.21866544 201.01089193 80.35857577 202.62527372 78.37548828 204.25793457 C75.47861122 206.7550303 72.64058694 209.30756302 69.81298828 211.88293457 C65.25812521 215.99928598 60.5528684 219.90040168 55.77783203 223.75793457 C53.76952643 225.32970995 53.76952643 225.32970995 52.62548828 226.50793457 C49.52472592 226.78355789 47.30648765 226.81839016 44.45068359 225.51647949 C41.63474299 222.41766417 42.13161844 219.09118159 42.23486328 215.12121582 C42.24052307 214.304207 42.24618286 213.48719818 42.25201416 212.64543152 C42.27440131 210.03650254 42.32459982 207.42894821 42.37548828 204.82043457 C42.39555036 203.0515742 42.41380164 201.2826923 42.43017578 199.51379395 C42.47427349 195.17797801 42.54331534 190.84318932 42.62548828 186.50793457 C41.98735199 186.51681702 41.3492157 186.52569946 40.69174194 186.53485107 C34.04067964 186.62345203 27.38978542 186.68372201 20.73828125 186.72766113 C18.25709217 186.74775698 15.77595033 186.77503841 13.29492188 186.80969238 C9.72530447 186.85829751 6.15631412 186.88092429 2.58642578 186.89855957 C1.47995697 186.91920471 0.37348816 186.93984985 -0.76651001 186.96112061 C-6.97495906 186.9629231 -10.67140873 186.69847694 -15.37451172 182.50793457 C-19.71725446 177.69570612 -20.4985652 174.44215593 -20.52168274 168.05085754 C-20.52535943 167.39240331 -20.52903612 166.73394908 -20.53282422 166.05554169 C-20.54385469 163.84475918 -20.54770382 161.63402368 -20.55151367 159.42321777 C-20.55777887 157.83971508 -20.56442572 156.25621385 -20.57142639 154.67271423 C-20.59246464 149.4680585 -20.60282937 144.26340249 -20.61279297 139.05871582 C-20.61684078 137.26625236 -20.62095771 135.47378906 -20.62514305 133.68132591 C-20.64419514 125.25901648 -20.65842546 116.8367158 -20.66675502 108.41438895 C-20.67652433 98.6969791 -20.70283573 88.97979722 -20.74325591 79.26246768 C-20.77343479 71.74896659 -20.78822563 64.23553078 -20.79153603 56.72197026 C-20.79388474 52.23581687 -20.80282158 47.74990703 -20.82799721 43.26381874 C-20.85131366 39.04074389 -20.85549692 34.81807231 -20.84523582 30.59494972 C-20.8447412 29.04862627 -20.85104004 27.50228273 -20.86479187 25.95602036 C-21.00479491 9.27479714 -21.00479491 9.27479714 -16.37451172 4.50793457 C-10.82011648 0.57054781 -6.70911986 -0.07008364 0 0 Z M-6.37451172 15.50793457 C-6.47344821 17.51790917 -6.50083455 19.53141526 -6.50149536 21.54382324 C-6.50431519 22.85636078 -6.50713501 24.16889832 -6.51004028 25.52120972 C-6.50809568 26.98944105 -6.50604749 28.45767226 -6.50390625 29.92590332 C-6.50526023 31.461355 -6.50704014 32.99680635 -6.50921631 34.53225708 C-6.51379109 38.71395787 -6.5120009 42.89563411 -6.50883722 47.07733536 C-6.50631385 51.44376952 -6.50865109 55.81020151 -6.51022339 60.17663574 C-6.51204515 67.51070536 -6.5096386 74.84476492 -6.50488281 82.17883301 C-6.49944018 90.67043075 -6.50120283 99.16200449 -6.50670922 107.65360165 C-6.51124016 114.93086166 -6.51189099 122.20811443 -6.50927055 129.4853754 C-6.50770767 133.83765621 -6.50751431 138.18992572 -6.51080704 142.54220581 C-6.51368547 146.63298039 -6.51171057 150.72372388 -6.50591278 154.81449509 C-6.50458503 156.32020389 -6.50497955 157.82591529 -6.50717545 159.33162308 C-6.50988634 161.37842976 -6.50589267 163.42524214 -6.50149536 165.4720459 C-6.50111834 166.62022293 -6.50074131 167.76839996 -6.50035286 168.95137024 C-6.66458261 171.44169303 -6.66458261 171.44169303 -5.37451172 172.50793457 C-3.5800941 172.61028615 -1.78169879 172.64364373 0.015625 172.64978027 C1.74279251 172.66033195 1.74279251 172.66033195 3.50485229 172.6710968 C4.75895905 172.67526108 6.0130658 172.67942535 7.30517578 172.68371582 C9.25885503 172.70097023 11.21253441 172.7182479 13.16620064 172.73691845 C18.00204623 172.78260285 22.83777855 172.8202564 27.67382812 172.8338623 C30.3824603 172.84198373 33.09062761 172.8605166 35.79910278 172.89079285 C38.35535257 172.91906385 40.91182806 172.9318355 43.4682312 172.92793274 C45.20485519 172.95266914 45.20485519 172.95266914 46.9765625 172.97790527 C48.50759109 172.98670464 48.50759109 172.98670464 50.06954956 172.99568176 C52.62548828 173.50793457 52.62548828 173.50793457 54.45152283 175.36924744 C55.97179478 178.13882302 56.05680912 180.21571158 56.13720703 183.36730957 C56.17265625 184.48234863 56.20810547 185.5973877 56.24462891 186.74621582 C56.2784668 188.4845166 56.2784668 188.4845166 56.31298828 190.25793457 C56.34714844 191.43227051 56.38130859 192.60660645 56.41650391 193.81652832 C56.49894001 196.71356846 56.56810639 199.61030755 56.62548828 202.50793457 C60.09292299 200.86404949 62.54857891 198.93577589 65.37548828 196.32043457 C68.41155815 193.53700117 71.44929795 190.76682619 74.56298828 188.07043457 C78.88663991 184.31265964 83.09403296 180.42969421 87.30517578 176.54699707 C90.57576723 173.67284095 92.19473027 173.3811266 96.45289612 173.35644531 C97.98202133 173.34392982 97.98202133 173.34392982 99.54203796 173.3311615 C100.66471573 173.32697708 101.78739349 173.32279266 102.9440918 173.31848145 C104.71239349 173.30604149 104.71239349 173.30604149 106.51641846 173.29335022 C109.7538588 173.27136061 112.99129103 173.25366998 116.22876477 173.23754311 C119.61159878 173.21940918 122.99438579 173.19495175 126.37718201 173.17089844 C135.7133909 173.10565958 145.0496533 173.05023115 154.38592529 172.99491119 C162.94389823 172.9441096 171.50184492 172.89126482 180.05975288 172.83038568 C183.43055287 172.80664529 186.80133968 172.7850701 190.17218208 172.76829529 C193.92692349 172.74901337 197.68158262 172.72384121 201.4362793 172.6973877 C203.12333229 172.69111107 203.12333229 172.69111107 204.84446716 172.68470764 C206.36936264 172.67219215 206.36936264 172.67219215 207.92506409 172.65942383 C208.81384027 172.6542701 209.70261644 172.64911636 210.61832523 172.64380646 C212.62356456 172.72910328 212.62356456 172.72910328 213.62548828 171.50793457 C213.72442477 169.49795997 213.75181111 167.48445388 213.75247192 165.4720459 C213.75529175 164.15950836 213.75811157 162.84697083 213.76101685 161.49465942 C213.75907224 160.02642809 213.75702406 158.55819688 213.75488281 157.08996582 C213.75623679 155.55451414 213.7580167 154.01906279 213.76019287 152.48361206 C213.76476766 148.30191127 213.76297746 144.12023503 213.75981379 139.93853378 C213.75729042 135.57209962 213.75962766 131.20566764 213.76119995 126.8392334 C213.76302171 119.50516378 213.76061516 112.17110422 213.75585938 104.83703613 C213.75041674 96.34543839 213.75217939 87.85386465 213.75768578 79.36226749 C213.76221672 72.08500748 213.76286755 64.80775471 213.76024711 57.53049374 C213.75868423 53.17821293 213.75849087 48.82594342 213.7617836 44.47366333 C213.76466204 40.38288875 213.76268714 36.29214526 213.75688934 32.20137405 C213.7555616 30.69566525 213.75595611 29.18995385 213.75815201 27.68424606 C213.76086291 25.63743938 213.75686923 23.590627 213.75247192 21.54382324 C213.7520949 20.39564621 213.75171787 19.24746918 213.75132942 18.0644989 C213.91555917 15.57417611 213.91555917 15.57417611 212.62548828 14.50793457 C209.82092502 14.40780824 207.04091443 14.37354256 204.23583984 14.38095093 C203.34547657 14.37939094 202.4551133 14.37783095 201.53776932 14.37622368 C198.5305342 14.37220969 195.52334885 14.37540486 192.51611328 14.37854004 C190.36983205 14.37718617 188.22355106 14.37540633 186.07727051 14.37322998 C180.23033585 14.36865388 174.38341875 14.37044593 168.53648376 14.37360907 C162.43236237 14.37613176 156.32824254 14.37379538 150.22412109 14.3722229 C139.97118865 14.37040094 129.71826339 14.37280821 119.46533203 14.37756348 C107.59277902 14.38300615 95.72024318 14.38124351 83.84769058 14.37573707 C73.67448911 14.3712067 63.50129282 14.37055502 53.32809067 14.37317574 C47.243179 14.37473893 41.15827541 14.37493113 35.07336426 14.37163925 C29.3541737 14.36876164 23.6350054 14.3707342 17.91581726 14.37653351 C15.81023699 14.3778617 13.70465486 14.377466 11.59907532 14.37527084 C8.73773672 14.37256164 5.87647063 14.37593763 3.01513672 14.38095093 C2.17050495 14.37872021 1.32587318 14.37648948 0.45564651 14.37419116 C-3.26258817 14.02947843 -3.26258817 14.02947843 -6.37451172 15.50793457 Z " fill="#000000" transform="translate(42.37451171875,24.4920654296875)"/>
<path d="M0 0 C-0.28127421 1.48117801 -0.57533732 2.95993249 -0.875 4.4375 C-1.03742188 5.26121094 -1.19984375 6.08492187 -1.3671875 6.93359375 C-1.57601562 7.61550781 -1.78484375 8.29742187 -2 9 C-2.99 9.495 -2.99 9.495 -4 10 C-4.99 9.67 -5.98 9.34 -7 9 C-8.85227252 8.90642308 -10.7078718 8.87006091 -12.5625 8.875 C-14.01849609 8.87113281 -14.01849609 8.87113281 -15.50390625 8.8671875 C-17.99952953 8.83349047 -17.99952953 8.83349047 -20 10 C-20.06585272 12.38057753 -20.06585272 12.38057753 -19 15 C-16.56693025 16.56665955 -14.35133213 17.79486308 -11.75 19 C-6.66333972 21.41101817 -2.73345054 23.62091515 1 28 C2.45320819 32.35962456 2.81697376 36.55892177 1.3515625 40.9375 C-1.09884983 45.79643726 -4.1187469 47.73370392 -9 50 C-17.43448516 52.65235382 -25.99433078 51.20226769 -34 48 C-33.34 44.7 -32.68 41.4 -32 38 C-30.68 38.33 -29.36 38.66 -28 39 C-22.5285107 40.21684541 -17.41341066 40.80447022 -12 39 C-10.9046469 37.20350035 -10.9046469 37.20350035 -11 35 C-13.85991885 31.55712407 -16.82095353 29.97726352 -20.875 28.1875 C-26.05020842 25.65683574 -30.41283419 23.33738829 -33 18 C-34.02075191 13.43902123 -33.50268187 9.40034879 -31.5 5.1875 C-25.11703163 -4.21207671 -9.52912973 -4.62579113 0 0 Z " fill="#000000" transform="translate(109,92)"/>
<path d="M0 0 C1.39456452 0.00667256 2.78911118 0.01863093 4.18359375 0.03515625 C4.89451172 0.03966797 5.60542969 0.04417969 6.33789062 0.04882812 C8.09899388 0.06064761 9.86005411 0.07858362 11.62109375 0.09765625 C14.13549082 6.45538098 16.03829808 12.87229462 17.80859375 19.47265625 C18.08123047 20.46910156 18.35386719 21.46554688 18.63476562 22.4921875 C20.62109375 29.83015155 20.62109375 29.83015155 20.62109375 32.09765625 C21.28109375 32.09765625 21.94109375 32.09765625 22.62109375 32.09765625 C22.70230469 31.03546875 22.78351563 29.97328125 22.8671875 28.87890625 C23.61812147 22.87143453 25.71071511 17.29481183 27.68359375 11.59765625 C28.06064453 10.4890625 28.43769531 9.38046875 28.82617188 8.23828125 C29.75100114 5.52232696 30.68278091 2.80897544 31.62109375 0.09765625 C34.10033176 0.0708053 36.57928215 0.05089078 39.05859375 0.03515625 C39.76564453 0.02677734 40.47269531 0.01839844 41.20117188 0.00976562 C43.00802934 0.00112037 44.81496978 0.04545614 46.62109375 0.09765625 C48.56033682 2.03689932 48.01196069 5.63323906 48.15625 8.2890625 C48.19922714 9.02656235 48.24220428 9.76406219 48.28648376 10.52391052 C48.37697344 12.09841025 48.46507733 13.67304856 48.55102539 15.24780273 C48.68021056 17.59859208 48.81895444 19.94866314 48.95898438 22.29882812 C49.53010684 32.24439961 49.73622906 42.13546724 49.62109375 52.09765625 C45.66109375 52.09765625 41.70109375 52.09765625 37.62109375 52.09765625 C37.29109375 41.20765625 36.96109375 30.31765625 36.62109375 19.09765625 C35.96109375 19.09765625 35.30109375 19.09765625 34.62109375 19.09765625 C34.53988281 19.98582031 34.45867187 20.87398437 34.375 21.7890625 C33.52689275 27.72581325 31.42721483 33.35829187 29.55859375 39.03515625 C29.18154297 40.19595703 28.80449219 41.35675781 28.41601562 42.55273438 C27.48946851 45.40274639 26.55769502 48.25093576 25.62109375 51.09765625 C22.32109375 51.09765625 19.02109375 51.09765625 15.62109375 51.09765625 C7.62109375 26.1806602 7.62109375 26.1806602 7.62109375 19.09765625 C6.96109375 19.09765625 6.30109375 19.09765625 5.62109375 19.09765625 C5.5960376 20.02626465 5.57098145 20.95487305 5.54516602 21.91162109 C5.45011443 25.35201429 5.35087668 28.79223338 5.2487793 32.23242188 C5.20542786 33.72228266 5.16375291 35.2121932 5.1237793 36.70214844 C5.0660816 38.84194952 5.0023862 40.9815001 4.9375 43.12109375 C4.88251343 45.053479 4.88251343 45.053479 4.82641602 47.02490234 C4.62109375 50.09765625 4.62109375 50.09765625 3.62109375 52.09765625 C-0.00890625 52.09765625 -3.63890625 52.09765625 -7.37890625 52.09765625 C-7.11402346 47.08454712 -6.84741988 42.07153324 -6.5793457 37.05859375 C-6.48872438 35.35972457 -6.39854155 33.66083194 -6.30883789 31.96191406 C-5.8682209 23.62219135 -5.4152992 15.28314883 -4.875 6.94921875 C-4.7675647 5.27980225 -4.7675647 5.27980225 -4.65795898 3.57666016 C-4.22878707 -0.23594845 -3.98464069 0.11516303 0 0 Z " fill="#000000" transform="translate(124.37890625,89.90234375)"/>
<path d="M0 0 C-0.99 3.3 -1.98 6.6 -3 10 C-4.32 9.67 -5.64 9.34 -7 9 C-8.87324188 8.90875326 -10.74954391 8.86994486 -12.625 8.875 C-13.58664063 8.87242188 -14.54828125 8.86984375 -15.5390625 8.8671875 C-18.00474769 8.83638917 -18.00474769 8.83638917 -20 10 C-20 11.98 -20 13.96 -20 16 C-19.1646875 16.23783203 -19.1646875 16.23783203 -18.3125 16.48046875 C-10.78502853 18.78194229 -3.12157529 21.9108905 1 29 C2.45451779 35.01200687 2.21444603 38.5043342 -1 44 C-6.49688052 49.49688052 -11.68678462 51.2845767 -19.375 51.3125 C-24.94766728 51.24228312 -28.97905497 50.36279766 -34 48 C-33.34 44.7 -32.68 41.4 -32 38 C-30.68 38.33 -29.36 38.66 -28 39 C-23.51535182 39.99030086 -19.58609973 40.31628274 -15 40 C-14.01 39.34 -13.02 38.68 -12 38 C-11.74969023 35.41619823 -11.74969023 35.41619823 -12 33 C-13.77117187 32.12988281 -13.77117187 32.12988281 -15.578125 31.2421875 C-17.13583401 30.45394921 -18.6931028 29.66484053 -20.25 28.875 C-21.02730469 28.49601562 -21.80460938 28.11703125 -22.60546875 27.7265625 C-27.48603622 25.22370739 -30.48938372 23.08730141 -33 18 C-33.99903367 13.18113173 -33.48899241 9.10023293 -31.5 4.625 C-23.76171336 -3.50020097 -10.08433517 -4.89530833 0 0 Z " fill="#000000" transform="translate(215,92)"/>
</svg>
