<?xml version="1.0" encoding="UTF-8"?>
<svg version="1.1" xmlns="http://www.w3.org/2000/svg" width="512" height="512">
<path d="M0 0 C0.87734802 0.00182281 1.75469604 0.00364563 2.65863037 0.00552368 C16.44438325 0.05363356 29.87280176 0.67282687 43.4375 3.3125 C44.3238916 3.47878906 45.2102832 3.64507813 46.12353516 3.81640625 C88.27855957 11.93036568 126.3648076 30.92238644 158.4375 59.3125 C159.33082031 60.09496094 160.22414063 60.87742188 161.14453125 61.68359375 C170.4394077 69.92190975 178.74337457 78.55791386 186.4375 88.3125 C187.21867187 89.27671875 187.99984375 90.2409375 188.8046875 91.234375 C196.11916354 100.44173461 202.39727923 110.23091765 208.4375 120.3125 C208.81648438 120.94349609 209.19546875 121.57449219 209.5859375 122.22460938 C239.62309236 173.09580587 246.56502843 238.48766413 232.4375 295.3125 C219.42900173 345.796415 190.57773325 391.9562625 149.4375 424.3125 C148.46296875 425.10398437 147.4884375 425.89546875 146.484375 426.7109375 C98.42980921 464.98555397 34.98687522 481.66591677 -25.765625 475.0625 C-53.10599308 471.72235894 -81.58130709 464.82118973 -105.71533203 451.08740234 C-106.37774902 450.71180176 -107.04016602 450.33620117 -107.72265625 449.94921875 C-108.55422241 449.44007935 -108.55422241 449.44007935 -109.40258789 448.9206543 C-114.96943853 447.35322749 -121.76624678 449.73338498 -127.21142578 451.19506836 C-127.93184052 451.38397644 -128.65225525 451.57288452 -129.39450073 451.76751709 C-131.76692068 452.39091325 -134.13733756 453.02159584 -136.5078125 453.65234375 C-138.19884498 454.09823668 -139.88999964 454.54366649 -141.58126831 454.98866272 C-146.04932883 456.16558056 -150.51573677 457.34865345 -154.98181152 458.53308105 C-159.37885848 459.69815467 -163.77736077 460.8577028 -168.17578125 462.01757812 C-175.13648877 463.85379247 -182.09635356 465.69316652 -189.05566406 467.53466797 C-199.76121675 470.36708211 -210.470081 473.18686402 -221.1796875 476.00390625 C-222.43687277 476.33461782 -222.43687277 476.33461782 -223.71945572 476.67201042 C-228.3337295 477.88578965 -232.94807726 479.09928718 -237.5625 480.3125 C-239.12133749 476.34807465 -237.93682563 473.01564437 -236.81518555 469.10180664 C-236.51763115 468.01965126 -236.51763115 468.01965126 -236.21406555 466.91563416 C-235.55161748 464.51532868 -234.87539372 462.11912765 -234.19921875 459.72265625 C-233.72761378 458.02363757 -233.25691251 456.32436781 -232.7870636 454.62486267 C-231.53846485 450.1173538 -230.27839535 445.6131315 -229.01568604 441.10955811 C-227.77453928 436.67694767 -226.54260645 432.24178383 -225.31054688 427.80664062 C-224.94836154 426.50365808 -224.94836154 426.50365808 -224.57885933 425.17435265 C-223.36087762 420.79246531 -222.14375096 416.41034147 -220.92745972 412.02798462 C-220.68679842 411.16099127 -220.44613712 410.29399792 -220.19818306 409.40073204 C-219.71392719 407.65593782 -219.22984009 405.91109675 -218.745924 404.16620827 C-217.52305771 399.75962786 -216.29479291 395.35466037 -215.05670166 390.95233154 C-213.84336482 386.63794582 -212.64159929 382.32049346 -211.44788551 378.00063896 C-211.00025587 376.38919214 -210.54829623 374.77894103 -210.09174156 373.17000008 C-209.46354465 370.95413782 -208.8507776 368.73454202 -208.24145508 366.51342773 C-207.71676384 364.6369883 -207.71676384 364.6369883 -207.18147278 362.72264099 C-206.01912866 356.31887421 -207.86887149 352.35612829 -211.0625 346.875 C-226.9890216 318.20871459 -236.58459434 282.89344239 -236.765625 250.0546875 C-236.77272995 249.1974408 -236.7798349 248.34019409 -236.78715515 247.45697021 C-237.15434962 190.09685106 -222.70951832 136.81131572 -186.5625 91.3125 C-185.87027344 90.42820312 -185.17804688 89.54390625 -184.46484375 88.6328125 C-176.04892401 78.09382045 -166.98309804 67.90425451 -156.5625 59.3125 C-155.59957031 58.47332031 -154.63664062 57.63414063 -153.64453125 56.76953125 C-146.29097477 50.37318954 -138.72943761 44.65470797 -130.5625 39.3125 C-129.5828125 38.66925781 -128.603125 38.02601562 -127.59375 37.36328125 C-111.16265694 26.92445537 -93.94196722 18.67956461 -75.5625 12.3125 C-74.52996094 11.94584229 -74.52996094 11.94584229 -73.4765625 11.57177734 C-64.97975358 8.57955272 -56.36767766 6.49660865 -47.5625 4.625 C-46.6139917 4.42237549 -45.6654834 4.21975098 -44.68823242 4.01098633 C-29.74443136 0.96995643 -15.20539806 -0.06578444 0 0 Z M-131.35546875 91.29296875 C-133.27732152 93.05154907 -135.23897489 94.72069775 -137.25 96.375 C-141.11268002 99.67175248 -144.30222715 103.43185135 -147.5625 107.3125 C-148.67238281 108.57320312 -148.67238281 108.57320312 -149.8046875 109.859375 C-184.71481145 150.23466212 -199.93401839 202.68254249 -196.34423828 255.52539062 C-193.41958765 287.33160874 -183.14739043 321.64706635 -163.86938477 347.59106445 C-162.09484811 351.28633067 -162.76559007 352.92824012 -163.890625 356.84375 C-164.17066376 357.85580505 -164.17066376 357.85580505 -164.45635986 358.88830566 C-164.89167942 360.457569 -165.33571667 362.02442869 -165.78637695 363.58935547 C-166.65643315 366.64207859 -167.48582895 369.70425146 -168.31054688 372.76953125 C-170.29025786 380.12296259 -172.30031933 387.46789878 -174.3125 394.8125 C-175.01728104 397.38922627 -175.72151392 399.96610198 -176.42578125 402.54296875 C-178.13620806 408.79997615 -179.84857448 415.05645012 -181.5625 421.3125 C-180.9025 421.9725 -180.2425 422.6325 -179.5625 423.3125 C-176.5872138 422.88865337 -176.5872138 422.88865337 -173.11254883 421.87133789 C-172.45050446 421.69445938 -171.78846008 421.51758087 -171.10635376 421.33534241 C-169.66499525 420.94869923 -168.22508386 420.55663091 -166.78647804 420.15986824 C-164.50635006 419.53152385 -162.22266933 418.91814939 -159.93742371 418.30870056 C-154.25780788 416.79085627 -148.58480772 415.2488906 -142.91235352 413.70452881 C-138.12784932 412.4025119 -133.34070045 411.11127424 -128.54932213 409.83477592 C-126.30465078 409.23208578 -124.06466953 408.61376763 -121.82441711 407.99488831 C-120.43630191 407.62346996 -119.04798095 407.25281946 -117.65942383 406.88305664 C-116.45522293 406.55503555 -115.25102203 406.22701447 -114.0103302 405.88905334 C-108.79291842 405.01658688 -104.15340824 405.55279446 -99.609375 408.31640625 C-98.91827637 408.72334717 -98.22717773 409.13028809 -97.51513672 409.54956055 C-96.7882666 409.98695557 -96.06139648 410.42435059 -95.3125 410.875 C-73.84534276 423.21364104 -50.10345435 430.99270389 -25.5625 434.3125 C-23.61923828 434.58707031 -23.61923828 434.58707031 -21.63671875 434.8671875 C-14.39397191 435.63915137 -7.08853559 435.55683607 0.1875 435.5625 C1.35600998 435.56351212 1.35600998 435.56351212 2.54812622 435.56454468 C15.06288619 435.54735915 27.15900104 434.91549099 39.4375 432.3125 C40.26169434 432.14089355 41.08588867 431.96928711 41.93505859 431.79248047 C79.90982598 423.64098139 112.47219161 404.97139982 140.4375 378.3125 C141.16582031 377.62542969 141.89414062 376.93835938 142.64453125 376.23046875 C148.06146698 370.98448168 152.8395071 365.2811683 157.4375 359.3125 C157.88077637 358.74515137 158.32405273 358.17780273 158.78076172 357.59326172 C178.29354997 332.33462631 191.20093744 301.77669613 196.4375 270.3125 C196.55174316 269.64154297 196.66598633 268.97058594 196.78369141 268.27929688 C204.9244422 217.77046085 191.92783509 164.82741538 162.4375 123.3125 C131.30161902 80.33338636 85.05936236 50.82196177 32.4375 42.3125 C31.73061035 42.19680664 31.0237207 42.08111328 30.29541016 41.96191406 C-27.76395362 32.9473987 -88.32167692 51.59620763 -131.35546875 91.29296875 Z " fill="#000000" transform="translate(256.5625,15.6875)"/>
<path d="M0 0 C0.97646484 -0.03287109 1.95292969 -0.06574219 2.95898438 -0.09960938 C7.64971582 -0.1345911 10.38477285 0.04164573 14.5 2.4453125 C17.56689758 6.02647645 19.32283785 9.42454523 21.125 13.75 C21.487146 14.58942139 21.84929199 15.42884277 22.22241211 16.29370117 C23.52216823 19.33361336 24.79141868 22.38548858 26.0625 25.4375 C26.62025769 26.75556244 27.17889669 28.07325218 27.73828125 29.390625 C29.25012965 32.95433625 30.74554686 36.52457517 32.23019409 40.09970093 C32.82350728 41.52548587 33.4202544 42.94984701 34.02053833 44.37271118 C34.87131909 46.39587499 35.70518862 48.42525531 36.53515625 50.45703125 C37.02250244 51.63370361 37.50984863 52.81037598 38.01196289 54.02270508 C39.55200271 59.02863975 39.91234408 62.8240279 37.4453125 67.5078125 C36.70023437 68.51585937 35.95515625 69.52390625 35.1875 70.5625 C34.79127441 71.11309082 34.39504883 71.66368164 33.98681641 72.23095703 C31.82070115 75.20947107 29.54954748 78.08382114 27.203125 80.921875 C26.74147949 81.49019043 26.27983398 82.05850586 25.80419922 82.64404297 C24.91324041 83.73171937 24.00398031 84.80473357 23.07470703 85.85986328 C20.6997199 88.7497274 20.06003937 90.21333653 20.1015625 93.99609375 C23.90273399 107.60923231 36.53230384 120.37083584 46.0625 130.4375 C46.88234375 131.32179688 47.7021875 132.20609375 48.546875 133.1171875 C62.17892665 147.35421186 88.48291453 168.54516025 109.0625 169.4375 C113.51632542 167.56866667 116.25814049 164.229117 119.25 160.5625 C119.72268311 159.99748779 120.19536621 159.43247559 120.68237305 158.8503418 C123.1419956 155.88363969 125.50891323 152.86852577 127.7890625 149.76171875 C128.44225464 148.8787915 128.44225464 148.8787915 129.10864258 147.97802734 C130.31218224 146.33571893 131.49460233 144.6779947 132.67578125 143.01953125 C135.57000234 139.8884672 136.80523228 138.92250518 141.0625 138.4375 C149.18117729 140.39328061 156.78745824 144.53654321 164.25 148.1875 C165.33772705 148.71537109 166.4254541 149.24324219 167.54614258 149.78710938 C170.72131038 151.33108673 173.89232968 152.88329312 177.0625 154.4375 C177.92359375 154.85708984 178.7846875 155.27667969 179.671875 155.70898438 C181.86742542 156.77949695 184.0596243 157.85644616 186.25 158.9375 C186.86576904 159.23881836 187.48153809 159.54013672 188.1159668 159.85058594 C189.78084724 160.68150732 191.42246623 161.55855377 193.0625 162.4375 C194.73892578 163.32501953 194.73892578 163.32501953 196.44921875 164.23046875 C199.0625 166.4375 199.0625 166.4375 199.7890625 169.58203125 C199.4435884 182.05896129 198.25921674 195.12082609 189.0625 204.4375 C188.38703125 205.16195312 187.7115625 205.88640625 187.015625 206.6328125 C174.71485282 218.80975141 158.45309463 224.6190459 141.375 224.875 C96.47418106 224.50364298 52.30544196 195.64533621 21.0625 165.4375 C20.40926758 164.80618164 19.75603516 164.17486328 19.08300781 163.52441406 C10.87063429 155.54391932 3.04194184 147.53192421 -3.9375 138.4375 C-4.72125 137.4475 -5.505 136.4575 -6.3125 135.4375 C-27.69320815 108.30675683 -44.45111345 81.14337908 -41.9375 45.4375 C-39.77248249 28.77658001 -30.28223289 14.31672976 -17.640625 3.55859375 C-12.04570626 -0.12430001 -6.46704915 0.03826656 0 0 Z " fill="#000000" transform="translate(178.9375,143.5625)"/>
</svg>
