<?xml version="1.0" standalone="no"?>
<!DOCTYPE svg PUBLIC "-//W3C//DTD SVG 20010904//EN"
 "http://www.w3.org/TR/2001/REC-SVG-20010904/DTD/svg10.dtd">
<svg version="1.0" xmlns="http://www.w3.org/2000/svg"
 width="128.000000pt" height="128.000000pt" viewBox="0 0 128.000000 128.000000"
 preserveAspectRatio="xMidYMid meet">

<g transform="translate(0.000000,128.000000) scale(0.100000,-0.100000)"
fill="#000000" stroke="none">
<path d="M17 1092 c-26 -28 -24 -192 1 -215 10 -10 25 -17 34 -17 17 0 48 31
48 48 0 8 31 12 105 12 l105 0 2 -332 3 -333 98 -3 99 -3 38 -41 c36 -37 43
-40 76 -35 38 6 84 41 84 64 0 10 30 13 139 13 132 0 140 -1 146 -21 8 -24 61
-59 90 -59 29 0 82 35 90 59 5 16 16 21 53 23 l47 3 3 92 3 93 -45 0 -46 0 -2
213 -3 212 -77 3 -77 3 -3 107 -3 107 -170 0 -170 0 -3 -107 -3 -108 -79 0
-80 0 -2 -212 -3 -213 -27 -3 -28 -3 -2 303 -3 303 -177 3 c-140 2 -178 5
-178 16 0 17 -32 46 -52 46 -8 0 -22 -8 -31 -18z m53 -107 c0 -78 -2 -85 -20
-85 -18 0 -20 7 -20 85 0 78 2 85 20 85 18 0 20 -7 20 -85z m730 20 c0 -48 5
-53 36 -31 16 13 21 12 36 -1 24 -22 38 -8 38 38 l0 39 43 0 42 0 -3 -90 -3
-90 -140 0 -139 0 0 90 0 90 45 0 45 0 0 -45z m70 32 c0 -7 -9 -13 -20 -14
-11 -1 -20 4 -20 13 0 8 9 14 20 14 11 0 20 -6 20 -13z m-450 -311 c0 -156 3
-291 6 -300 5 -14 51 -16 415 -16 l409 0 0 -60 0 -60 -34 0 c-26 0 -36 5 -41
20 -10 30 -54 60 -90 60 -36 0 -80 -30 -90 -60 -6 -19 -16 -20 -136 -20 l-130
0 -38 40 c-40 43 -69 50 -116 28 -15 -7 -33 -25 -41 -40 -14 -28 -16 -28 -104
-28 l-90 0 -2 332 -3 333 -117 3 -118 3 0 24 0 25 160 0 160 0 0 -284z m220
69 c0 -46 13 -58 38 -33 10 10 17 10 33 0 28 -18 39 -7 39 39 l0 39 45 0 45 0
0 -90 0 -90 -145 0 -145 0 0 90 0 90 45 0 45 0 0 -45z m80 31 c0 -7 -11 -16
-25 -18 -19 -4 -25 -1 -25 13 0 14 7 19 25 19 15 0 25 -6 25 -14z m240 -31 c0
-46 13 -58 38 -33 8 8 15 8 26 -2 27 -21 46 -5 46 40 l0 40 40 0 40 0 0 -90 0
-90 -140 0 -140 0 0 90 0 90 45 0 45 0 0 -45z m70 31 c0 -7 -9 -16 -20 -19
-15 -4 -20 0 -20 14 0 12 7 19 20 19 11 0 20 -6 20 -14z m-392 -236 c5 -59 9
-64 36 -47 21 14 25 14 39 0 23 -23 37 -7 37 43 l0 45 43 -3 42 -3 0 -90 0
-90 -140 0 -140 0 -3 79 c-4 102 -1 108 45 104 35 -3 38 -5 41 -38z m80 18 c2
-12 -4 -16 -22 -14 -25 1 -34 15 -19 30 12 11 38 2 41 -16z m240 -18 c5 -59
10 -65 32 -45 19 17 21 17 41 -1 17 -16 22 -16 29 -4 6 8 10 32 10 53 0 37 0
37 40 37 l40 0 0 -95 0 -95 -140 0 -140 0 0 96 0 95 43 -3 c40 -3 42 -5 45
-38z m72 22 c0 -11 -7 -18 -20 -18 -13 0 -20 7 -20 18 0 11 7 18 20 18 13 0
20 -7 20 -18z m-363 -294 c14 -11 17 -66 5 -84 -25 -39 -90 -36 -111 5 -17 31
-13 50 15 77 19 20 31 24 52 19 15 -4 33 -11 39 -17z m457 1 c48 -38 23 -112
-39 -111 -62 0 -87 73 -39 111 15 12 32 21 39 21 7 0 24 -9 39 -21z"/>
<path d="M587 302 c-24 -26 -21 -49 7 -67 45 -30 91 16 61 61 -19 29 -46 31
-68 6z m43 -32 c0 -5 -4 -10 -10 -10 -5 0 -10 5 -10 10 0 6 5 10 10 10 6 0 10
-4 10 -10z"/>
<path d="M1056 304 c-9 -8 -16 -24 -16 -34 0 -20 25 -50 41 -50 27 0 49 22 49
50 0 44 -44 64 -74 34z m44 -35 c0 -5 -7 -9 -15 -9 -15 0 -20 12 -9 23 8 8 24
-1 24 -14z"/>
</g>
</svg>
