<?xml version="1.0" standalone="no"?>
<!DOCTYPE svg PUBLIC "-//W3C//DTD SVG 20010904//EN"
 "http://www.w3.org/TR/2001/REC-SVG-20010904/DTD/svg10.dtd">
<svg version="1.0" xmlns="http://www.w3.org/2000/svg"
 width="512.000000pt" height="512.000000pt" viewBox="0 0 512.000000 512.000000"
 preserveAspectRatio="xMidYMid meet">

<g transform="translate(0.000000,512.000000) scale(0.100000,-0.100000)"
fill="#000000" stroke="none">
<path d="M2406 5105 c-155 -40 -300 -153 -366 -287 l-33 -68 -201 0 c-278 0
-286 -5 -286 -196 l0 -104 -252 0 c-188 0 -269 -4 -316 -15 -192 -46 -352
-206 -391 -393 -8 -38 -11 -576 -11 -1846 0 -1758 0 -1795 20 -1858 50 -161
189 -282 373 -323 64 -14 238 -15 1652 -13 l1580 3 67 26 c123 48 231 136 278
228 53 105 50 -2 50 1941 0 1963 3 1844 -57 1970 -36 74 -141 179 -221 219
-106 53 -159 61 -439 61 l-253 0 0 104 c0 122 -8 149 -52 176 -30 18 -51 20
-240 20 l-207 0 -31 65 c-17 36 -56 92 -86 124 -109 118 -229 170 -409 177
-77 2 -128 -1 -169 -11z m251 -231 c104 -35 188 -124 220 -234 35 -122 53
-130 292 -130 l181 0 0 -245 0 -245 -790 0 -790 0 0 244 0 245 184 3 c221 4
226 6 267 114 38 102 53 127 109 177 90 81 216 108 327 71z m-1135 -836 c3
-160 5 -175 25 -204 12 -17 35 -37 50 -43 21 -8 279 -11 975 -9 l946 3 27 25
c48 44 55 76 55 246 l0 156 258 -4 257 -3 57 -28 c61 -30 95 -64 131 -131 l22
-41 3 -1775 c2 -1378 0 -1785 -10 -1820 -15 -57 -78 -121 -144 -146 -47 -18
-102 -19 -1578 -22 -995 -1 -1548 1 -1584 8 -112 20 -188 80 -211 164 -9 30
-11 514 -9 1816 3 1711 4 1776 22 1810 49 93 115 145 203 160 27 4 150 8 275
9 l226 1 4 -172z"/>
<path d="M1945 3391 c-16 -10 -115 -100 -220 -200 -104 -99 -193 -181 -196
-181 -4 0 -42 37 -85 83 -98 103 -118 117 -172 117 -74 0 -122 -66 -107 -147
5 -30 33 -64 152 -184 80 -81 158 -153 175 -160 59 -24 86 -6 353 247 243 230
285 277 285 319 0 35 -35 88 -71 107 -43 23 -76 23 -114 -1z"/>
<path d="M2384 3094 c-66 -32 -86 -127 -38 -183 14 -17 42 -35 62 -41 56 -15
1426 -13 1472 3 19 7 44 27 57 46 40 60 26 126 -36 168 l-34 23 -726 0 c-626
0 -730 -3 -757 -16z"/>
<path d="M1945 2418 c-11 -6 -108 -96 -216 -200 l-196 -188 -93 95 c-97 99
-137 122 -189 110 -61 -13 -103 -86 -87 -151 7 -27 271 -310 309 -331 28 -16
82 -16 110 -2 19 10 177 157 454 422 86 83 101 112 84 167 -16 54 -62 90 -114
90 -23 0 -51 -6 -62 -12z"/>
<path d="M2384 2120 c-82 -33 -85 -173 -4 -215 44 -23 1466 -23 1514 0 60 29
83 103 51 165 -32 62 -2 60 -807 59 -403 0 -743 -4 -754 -9z"/>
<path d="M1958 1447 c-15 -7 -115 -95 -223 -197 -108 -102 -199 -186 -203
-188 -5 -1 -50 40 -101 93 -51 52 -104 98 -117 101 -66 17 -135 -21 -150 -82
-16 -64 1 -92 153 -245 80 -81 158 -153 175 -160 59 -24 86 -6 353 247 138
130 258 251 269 270 23 44 15 92 -22 129 -44 45 -84 54 -134 32z"/>
<path d="M2394 1150 c-11 -4 -33 -22 -47 -40 -56 -66 -23 -166 61 -190 56 -15
1426 -13 1472 3 71 25 104 124 59 181 -46 58 -14 56 -801 55 -398 0 -732 -4
-744 -9z"/>
</g>
</svg>
