<?xml version="1.0" standalone="no"?>
<!DOCTYPE svg PUBLIC "-//W3C//DTD SVG 20010904//EN"
 "http://www.w3.org/TR/2001/REC-SVG-20010904/DTD/svg10.dtd">
<svg version="1.0" xmlns="http://www.w3.org/2000/svg"
 width="512.000000pt" height="512.000000pt" viewBox="0 0 512.000000 512.000000"
 preserveAspectRatio="xMidYMid meet">

<g transform="translate(0.000000,512.000000) scale(0.100000,-0.100000)"
fill="#000000" stroke="none">
<path d="M18 4603 c10 -16 145 -209 300 -430 l280 -402 111 -1448 c65 -846
117 -1475 126 -1512 38 -162 171 -283 341 -311 83 -14 2209 -13 2294 1 117 18
215 80 280 174 66 95 61 51 195 1675 69 828 127 1531 131 1563 l6 57 188 0
c104 0 191 -4 194 -8 3 -5 55 -427 116 -938 61 -511 116 -945 121 -964 23 -90
91 -147 183 -157 104 -11 198 52 225 150 9 31 11 353 9 1217 -3 1107 -4 1177
-21 1211 -24 47 -71 95 -121 122 l-41 22 -2468 3 -2469 2 20 -27z m3932 -180
c0 -21 -67 -835 -149 -1810 -143 -1720 -148 -1773 -172 -1820 -28 -54 -92
-107 -147 -123 -56 -15 -2272 -14 -2324 2 -53 16 -132 88 -152 140 -13 32 -42
367 -131 1529 l-115 1487 -166 239 c-92 131 -191 273 -221 316 l-54 77 1815 0
1816 0 0 -37z m974 16 l26 -21 -2 -1170 -3 -1171 -22 -8 c-15 -6 -28 -3 -43 9
-19 16 -30 92 -143 1034 l-122 1018 -260 0 -260 0 12 143 c6 78 12 152 12 165
l1 22 389 0 c378 0 389 -1 415 -21z"/>
<path d="M3300 2435 l0 -1286 83 3 82 3 0 1280 0 1280 -82 3 -83 3 0 -1286z"/>
<path d="M2060 3385 l0 -85 495 0 495 0 0 85 0 85 -495 0 -495 0 0 -85z"/>
<path d="M2560 2890 l0 -80 245 0 245 0 0 80 0 80 -245 0 -245 0 0 -80z"/>
<path d="M2060 2395 l0 -85 495 0 495 0 0 85 0 85 -495 0 -495 0 0 -85z"/>
<path d="M2560 1900 l0 -80 245 0 245 0 0 80 0 80 -245 0 -245 0 0 -80z"/>
<path d="M2064 1481 c-2 -2 -4 -40 -4 -83 l0 -78 495 0 495 0 0 83 0 82 -491
0 c-270 0 -493 -2 -495 -4z"/>
</g>
</svg>
