<?xml version="1.0" standalone="no"?>
<!DOCTYPE svg PUBLIC "-//W3C//DTD SVG 20010904//EN"
 "http://www.w3.org/TR/2001/REC-SVG-20010904/DTD/svg10.dtd">
<svg version="1.0" xmlns="http://www.w3.org/2000/svg"
 width="128.000000pt" height="128.000000pt" viewBox="0 0 128.000000 128.000000"
 preserveAspectRatio="xMidYMid meet">

<g transform="translate(0.000000,128.000000) scale(0.100000,-0.100000)"
fill="#000000" stroke="none">
<path d="M524 1096 c-42 -19 -52 -29 -57 -55 -7 -33 -21 -38 -59 -20 -20 9
-50 -2 -203 -73 -99 -46 -186 -87 -192 -91 -18 -11 -18 -328 -1 -345 9 -9 68
-12 206 -12 179 0 193 1 190 18 -2 10 -14 18 -31 20 -18 2 -31 11 -36 25 -23
58 -94 81 -148 48 -18 -11 -35 -32 -39 -46 -6 -23 -11 -25 -60 -25 l-54 0 0
140 0 140 371 0 370 0 -3 -25 c-2 -15 -45 -73 -103 -139 -100 -114 -100 -114
-150 -118 -38 -2 -51 -7 -53 -20 -3 -14 3 -18 28 -18 26 0 29 -2 21 -18 -6
-11 -6 -24 0 -33 23 -36 1 -63 -51 -64 -34 0 -44 -5 -58 -28 -13 -21 -14 -31
-6 -45 6 -9 84 -48 174 -85 l163 -68 259 87 c181 60 261 91 268 104 6 10 10
51 10 90 0 63 -2 71 -17 68 -15 -3 -19 -17 -23 -73 l-5 -69 -38 -14 c-36 -14
-38 -14 -63 12 -26 25 -56 32 -89 20 -18 -7 -45 -55 -45 -81 0 -15 -21 -26
-96 -50 -75 -25 -93 -28 -82 -15 7 9 103 118 213 241 l200 225 5 -65 c4 -50 9
-65 23 -67 15 -3 17 7 17 96 0 68 -4 103 -12 109 -7 5 -86 39 -176 76 -179 74
-173 73 -231 13 l-35 -36 -32 68 c-37 78 -85 141 -144 188 -51 40 -60 41 -126
10z m123 -58 c25 -24 60 -65 78 -93 59 -94 88 -85 -283 -84 l-327 1 132 63
c120 58 135 63 162 52 39 -14 79 3 92 41 9 27 56 60 87 61 7 1 33 -18 59 -41z
m299 -202 c2 -81 93 -119 151 -64 l28 26 52 -20 52 -20 -27 -33 c-15 -17 -125
-142 -246 -277 l-218 -246 -132 55 c-72 30 -139 57 -149 60 -31 9 -12 28 30
31 53 4 77 30 78 86 0 41 7 51 179 245 99 111 184 200 190 198 6 -2 11 -20 12
-41z m94 -2 c46 -19 50 -30 15 -46 -19 -9 -29 -8 -50 6 -24 16 -35 56 -15 56
5 0 28 -7 50 -16z m-766 -250 c9 -4 21 -15 27 -25 9 -18 5 -19 -51 -19 -62 0
-71 7 -44 34 16 17 41 20 68 10z m833 -250 c2 -7 -10 -17 -28 -23 -40 -14 -39
-14 -39 2 0 32 58 50 67 21z"/>
<path d="M542 1009 c-26 -10 -38 -50 -22 -78 17 -32 77 -29 92 4 22 49 -19 93
-70 74z m33 -59 c-5 -8 -11 -8 -17 -2 -6 6 -7 16 -3 22 5 8 11 8 17 2 6 -6 7
-16 3 -22z"/>
<path d="M916 634 c-34 -34 -9 -94 39 -94 24 0 55 33 55 57 0 20 -38 53 -59
53 -11 0 -27 -7 -35 -16z m54 -39 c0 -8 -6 -15 -14 -15 -17 0 -28 14 -19 24
12 12 33 6 33 -9z"/>
<path d="M723 585 c-51 -22 -61 -90 -17 -124 35 -28 69 -26 99 4 62 61 -1 154
-82 120z m57 -39 c6 -8 10 -25 8 -38 -4 -30 -46 -38 -65 -12 -17 23 -16 29 3
48 19 20 38 20 54 2z"/>
<path d="M666 364 c-9 -8 -16 -24 -16 -35 0 -23 34 -59 55 -59 21 0 55 36 55
59 0 27 -26 51 -55 51 -13 0 -31 -7 -39 -16z m54 -40 c0 -8 -7 -14 -15 -14
-15 0 -21 21 -9 33 10 9 24 -2 24 -19z"/>
<path d="M252 784 c-24 -17 -30 -62 -10 -82 16 -16 63 -15 75 1 23 29 23 48
-2 73 -28 28 -33 29 -63 8z m44 -35 c10 -17 -13 -36 -27 -22 -12 12 -4 33 11
33 5 0 12 -5 16 -11z"/>
<path d="M433 758 c-71 -34 -37 -148 43 -148 23 0 74 55 74 80 0 27 -52 80
-77 79 -10 0 -28 -5 -40 -11z m67 -43 c26 -32 -13 -81 -47 -59 -35 22 -23 74
17 74 10 0 23 -7 30 -15z"/>
</g>
</svg>
