<?xml version="1.0" standalone="no"?>
<!DOCTYPE svg PUBLIC "-//W3C//DTD SVG 20010904//EN"
 "http://www.w3.org/TR/2001/REC-SVG-20010904/DTD/svg10.dtd">
<svg version="1.0" xmlns="http://www.w3.org/2000/svg"
 width="512.000000pt" height="512.000000pt" viewBox="0 0 512.000000 512.000000"
 preserveAspectRatio="xMidYMid meet">

<g transform="translate(0.000000,512.000000) scale(0.100000,-0.100000)"
fill="#000000" stroke="none">
<path d="M801 5104 c-162 -43 -297 -185 -331 -347 -7 -36 -10 -699 -8 -2227
l3 -2175 23 -57 c48 -118 152 -222 269 -270 l58 -23 1799 -3 c2046 -3 1869
-10 1961 82 93 93 85 -150 85 2476 0 2625 8 2383 -84 2476 -92 92 82 84 -1940
83 -1523 0 -1789 -2 -1835 -15z m3634 -209 l25 -24 0 -1949 0 -1949 -21 -27
-20 -26 -1680 0 -1679 0 0 790 0 790 -29 32 c-24 27 -36 33 -71 33 -35 0 -47
-6 -71 -33 l-29 -32 0 -794 0 -794 -39 -7 c-21 -3 -66 -19 -100 -35 l-61 -29
2 1947 3 1947 22 40 c33 62 121 135 163 135 7 0 10 -242 10 -780 0 -838 -1
-823 49 -850 25 -13 77 -13 102 0 50 27 49 12 49 855 l0 785 1675 0 1676 0 24
-25z m25 -4405 l0 -241 -25 -24 c-21 -22 -33 -25 -100 -25 l-75 0 0 260 0 259
98 4 c53 1 98 4 100 5 1 1 2 -106 2 -238z m-400 -30 l0 -260 -1607 2 -1608 3
-40 22 c-115 62 -171 193 -131 308 30 89 92 146 186 171 34 10 409 13 1623 13
l1577 1 0 -260z"/>
<path d="M2632 4245 c-108 -24 -207 -80 -292 -165 l-75 -76 -45 14 c-25 7 -86
16 -135 19 -335 21 -625 -251 -625 -587 0 -212 132 -431 313 -520 l67 -33 0
-595 c0 -577 1 -597 20 -636 11 -23 33 -50 48 -61 26 -20 45 -20 846 -23 810
-2 818 -2 851 18 19 12 43 40 54 64 21 41 21 56 21 637 l0 594 68 35 c95 49
198 154 246 250 164 335 3 715 -354 836 -72 25 -273 26 -338 2 l-44 -16 -76
77 c-151 151 -347 210 -550 166z m223 -199 c109 -29 202 -101 249 -194 14 -28
36 -58 48 -66 30 -22 84 -20 122 3 56 35 143 54 221 49 142 -9 266 -95 328
-226 29 -61 32 -76 32 -162 0 -86 -3 -101 -32 -162 -51 -108 -144 -186 -260
-217 -24 -7 -51 -23 -62 -38 -20 -25 -21 -37 -21 -439 l0 -414 -720 0 -720 0
0 414 c0 402 -1 414 -21 439 -11 15 -38 31 -62 38 -116 31 -209 109 -260 217
-29 61 -32 76 -32 162 0 86 3 101 32 162 62 131 186 217 328 226 78 5 165 -14
221 -49 38 -23 92 -25 122 -3 12 8 34 38 48 66 46 91 152 174 251 197 57 13
132 12 188 -3z m625 -2166 l0 -100 -720 0 -720 0 0 93 c0 52 3 97 7 100 3 4
327 7 720 7 l713 0 0 -100z"/>
<path d="M924 3011 c-30 -13 -64 -59 -64 -88 0 -32 26 -80 49 -93 11 -5 34
-10 51 -10 42 0 67 15 85 50 22 43 18 76 -12 110 -30 32 -75 45 -109 31z"/>
</g>
</svg>
