<?xml version="1.0" standalone="no"?>
<!DOCTYPE svg PUBLIC "-//W3C//DTD SVG 20010904//EN"
 "http://www.w3.org/TR/2001/REC-SVG-20010904/DTD/svg10.dtd">
<svg version="1.0" xmlns="http://www.w3.org/2000/svg"
 width="512.000000pt" height="512.000000pt" viewBox="0 0 512.000000 512.000000"
 preserveAspectRatio="xMidYMid meet">

<g transform="translate(0.000000,512.000000) scale(0.100000,-0.100000)"
fill="#000000" stroke="none">
<path d="M2344 4851 c-85 -10 -108 -21 -123 -58 -6 -15 -36 -136 -66 -268 -30
-132 -59 -246 -63 -254 -6 -11 -117 -56 -258 -103 -30 -10 -38 -5 -253 156
-166 125 -229 166 -250 166 -38 0 -151 -76 -289 -195 -129 -110 -189 -174
-198 -211 -6 -23 16 -73 119 -281 l127 -253 -44 -67 c-24 -38 -58 -96 -75
-130 -17 -35 -37 -63 -44 -63 -87 0 -545 -33 -558 -41 -28 -14 -44 -53 -72
-169 -46 -189 -72 -404 -55 -452 12 -35 18 -38 309 -162 l227 -97 6 -63 c4
-34 16 -100 26 -146 l19 -85 -77 -75 c-42 -42 -135 -130 -206 -197 -121 -112
-130 -123 -130 -157 0 -83 249 -509 313 -536 28 -11 53 -5 297 69 l267 80 33
-27 c17 -15 59 -49 91 -77 33 -27 72 -59 87 -70 l27 -20 -31 -245 c-33 -269
-35 -311 -19 -342 15 -28 177 -102 352 -160 192 -63 225 -68 261 -37 15 13 91
122 169 242 l143 219 154 0 154 0 143 -219 c78 -120 155 -229 169 -242 36 -31
69 -26 261 37 175 58 337 132 352 160 16 31 14 73 -19 342 l-30 245 27 20 c15
11 54 43 86 70 33 28 74 62 92 77 l32 28 267 -81 c244 -75 269 -80 297 -69 63
27 313 453 313 536 0 33 -10 45 -134 162 -74 70 -167 158 -207 197 l-72 70 19
85 c10 46 22 112 26 147 l6 62 217 92 c307 130 302 128 316 163 21 49 -5 267
-57 476 -23 97 -40 135 -67 149 -13 8 -471 41 -558 41 -7 0 -27 28 -44 63 -17
34 -51 92 -75 130 l-44 67 127 253 c105 211 125 258 119 282 -20 80 -410 405
-486 405 -22 0 -84 -41 -252 -167 l-222 -166 -46 17 c-25 9 -85 31 -135 48
-49 17 -95 36 -101 42 -6 6 -37 124 -69 261 -32 138 -64 262 -71 277 -9 17
-27 31 -52 38 -47 14 -404 21 -498 11z m358 -177 l45 -6 58 -252 c32 -138 64
-263 71 -278 12 -23 32 -32 131 -63 65 -21 158 -55 208 -76 49 -21 98 -39 108
-39 28 0 48 13 265 176 l205 154 31 -22 c55 -39 139 -109 199 -165 l57 -55
-126 -245 c-95 -185 -124 -251 -120 -269 4 -13 34 -66 67 -117 34 -50 81 -134
106 -185 25 -51 55 -98 67 -104 12 -7 131 -18 291 -28 l269 -15 13 -44 c18
-64 56 -298 50 -314 -2 -7 -114 -59 -247 -116 -233 -100 -280 -127 -280 -160
-1 -47 -32 -241 -51 -318 -12 -50 -19 -100 -16 -115 4 -15 85 -98 207 -213
l200 -187 -46 -87 c-38 -69 -126 -214 -139 -229 -2 -2 -117 31 -256 72 -139
42 -265 76 -281 76 -22 0 -48 -18 -112 -79 -46 -43 -122 -107 -169 -142 -50
-36 -90 -74 -95 -89 -8 -22 6 -164 51 -523 5 -35 3 -38 -31 -53 -70 -31 -283
-104 -301 -104 -12 0 -61 67 -156 213 -76 116 -147 221 -159 232 -20 19 -34
20 -259 20 -222 -1 -238 -2 -256 -20 -10 -11 -80 -116 -156 -232 -88 -136
-144 -213 -155 -213 -23 0 -206 62 -278 95 -58 26 -60 28 -56 59 19 132 54
448 54 486 0 56 -4 62 -105 136 -44 32 -117 94 -162 137 -64 60 -89 77 -112
77 -16 0 -140 -34 -276 -75 -137 -41 -251 -75 -254 -75 -8 0 -100 146 -151
241 l-41 77 201 187 c122 115 203 198 207 213 3 14 -3 64 -15 111 -24 100 -38
179 -47 272 -4 44 -13 73 -25 86 -10 11 -127 67 -260 124 -133 57 -244 109
-247 115 -6 17 24 218 45 295 l17 64 260 14 c154 8 272 18 290 26 25 10 40 31
74 101 23 49 72 134 109 189 47 72 65 109 65 132 -1 19 -46 119 -122 266
l-122 235 61 58 c85 81 222 184 235 176 5 -3 98 -72 205 -152 208 -157 229
-170 257 -170 10 0 59 18 108 39 50 21 143 55 208 76 108 33 119 39 132 68 8
18 40 143 71 279 l57 247 31 4 c53 7 251 7 298 1z"/>
<path d="M2463 3499 c-334 -30 -645 -251 -789 -563 -164 -356 -95 -782 173
-1066 214 -228 506 -340 805 -309 241 24 442 122 605 293 164 171 248 352 272
584 29 275 -66 551 -259 756 -214 227 -493 332 -807 305z m292 -200 c218 -53
413 -209 515 -414 59 -118 81 -217 81 -355 0 -244 -101 -461 -287 -614 -143
-118 -313 -178 -504 -178 -191 0 -361 60 -504 178 -186 153 -288 370 -288 614
0 138 23 236 82 355 167 335 536 503 905 414z"/>
</g>
</svg>
