<?xml version="1.0" standalone="no"?>
<!DOCTYPE svg PUBLIC "-//W3C//DTD SVG 20010904//EN"
 "http://www.w3.org/TR/2001/REC-SVG-20010904/DTD/svg10.dtd">
<svg version="1.0" xmlns="http://www.w3.org/2000/svg"
 width="512.000000pt" height="512.000000pt" viewBox="0 0 512.000000 512.000000"
 preserveAspectRatio="xMidYMid meet">

<g transform="translate(0.000000,512.000000) scale(0.100000,-0.100000)"
fill="#000000" stroke="none">
<path d="M492 5109 c-45 -14 -105 -76 -120 -125 -17 -57 -18 -4900 -1 -4937
18 -40 50 -47 200 -47 135 0 141 1 164 25 23 22 25 32 25 120 l0 95 1800 0
1800 0 0 -95 c0 -88 2 -98 25 -120 23 -24 28 -25 175 -25 147 0 152 1 176 25
l24 24 -2 2463 -3 2463 -21 40 c-11 22 -40 54 -63 70 -37 26 -51 30 -111 30
-60 0 -74 -4 -111 -30 -23 -16 -53 -50 -66 -74 l-23 -44 0 -644 0 -643 -120 0
-120 0 0 573 c0 549 -1 573 -20 597 l-19 25 -681 0 -682 0 -19 -24 c-18 -22
-19 -47 -19 -597 l0 -574 -120 0 -120 0 0 574 c0 550 -1 575 -19 597 l-19 24
-654 3 c-359 2 -668 0 -685 -3 -64 -12 -63 -1 -63 -630 l0 -565 -120 0 -119 0
-3 653 -3 652 -24 38 c-47 76 -151 113 -239 86z m96 -161 c9 -9 12 -556 12
-2400 l0 -2388 -40 0 -40 0 0 2388 c0 1844 3 2391 12 2400 7 7 19 12 28 12 9
0 21 -5 28 -12z m4000 0 c9 -9 12 -556 12 -2400 l0 -2388 -40 0 -40 0 0 2388
c0 1844 3 2391 12 2400 7 7 19 12 28 12 9 0 21 -5 28 -12z m-3108 -323 c0 -88
2 -98 25 -120 24 -25 26 -25 215 -25 189 0 191 0 215 25 23 22 25 32 25 120
l0 95 160 0 160 0 0 -520 0 -520 -560 0 -560 0 0 520 0 520 160 0 160 0 0 -95z
m320 55 l0 -40 -80 0 -80 0 0 40 0 40 80 0 80 0 0 -40z m1360 -55 c0 -88 2
-98 25 -120 24 -25 26 -25 215 -25 189 0 191 0 215 25 23 22 25 32 25 120 l0
95 160 0 160 0 0 -520 0 -520 -560 0 -560 0 0 520 0 520 160 0 160 0 0 -95z
m320 55 l0 -40 -80 0 -80 0 0 40 0 40 80 0 80 0 0 -40z m880 -1200 l0 -40
-1800 0 -1800 0 0 40 0 40 1800 0 1800 0 0 -40z m0 -760 l0 -560 -120 0 -120
0 0 455 0 456 -25 24 -24 25 -1511 0 -1511 0 -24 -25 -25 -24 0 -456 0 -455
-120 0 -120 0 0 560 0 560 1800 0 1800 0 0 -560z m-2080 148 c1 -96 7 -115 47
-136 29 -16 432 -16 466 -1 36 16 47 50 47 144 l0 85 560 0 560 0 0 -400 0
-400 -1400 0 -1400 0 0 400 0 400 560 0 560 0 0 -92z m400 52 l0 -40 -120 0
-120 0 0 40 0 40 120 0 120 0 0 -40z m1680 -960 l0 -40 -1800 0 -1800 0 0 40
0 40 1800 0 1800 0 0 -40z m0 -760 l0 -560 -120 0 -120 0 0 495 0 496 -25 24
-24 25 -591 0 -591 0 -24 -25 -25 -24 0 -496 0 -495 -120 0 -120 0 0 375 0
376 -25 24 -24 25 -751 0 -751 0 -24 -25 -25 -24 0 -376 0 -375 -120 0 -120 0
0 560 0 560 1800 0 1800 0 0 -560z m-1120 226 c0 -146 -8 -141 240 -141 248 0
240 -5 240 141 l0 94 120 0 120 0 0 -440 0 -440 -480 0 -480 0 0 440 0 440
120 0 120 0 0 -94z m320 54 l0 -40 -80 0 -80 0 0 40 0 40 80 0 80 0 0 -40z
m-2000 -294 c0 -146 -8 -141 240 -141 248 0 240 -5 240 141 l0 94 200 0 200 0
0 -320 0 -320 -640 0 -640 0 0 320 0 320 200 0 200 0 0 -94z m320 54 l0 -40
-80 0 -80 0 0 40 0 40 80 0 80 0 0 -40z m2480 -800 l0 -40 -1800 0 -1800 0 0
40 0 40 1800 0 1800 0 0 -40z"/>
</g>
</svg>
